Coordinates

Units are S.I. units (second, meters, Newtons, ...)
If the header above contains a line with 'inDegrees', this indicates whether rotational values are in degrees (yes) or radians (no).

inDegrees=no
nColumns=21
nRows=12
DataType=double
version=3
OpenSimVersion=4.6-2026-03-31-d6972f9e6
endheader
time	/jointset/ground_pelvis/pelvis_tilt/value	/jointset/ground_pelvis/pelvis_list/value	/jointset/ground_pelvis/pelvis_rotation/value	/jointset/ground_pelvis/pelvis_tx/value	/jointset/ground_pelvis/pelvis_ty/value	/jointset/ground_pelvis/pelvis_tz/value	/jointset/hip_r/hip_flexion_r/value	/jointset/hip_r/hip_adduction_r/value	/jointset/hip_r/hip_rotation_r/value	/jointset/walker_knee_r/knee_angle_r/value	/jointset/patellofemoral_r/knee_angle_r_beta/value	/jointset/ankle_r/ankle_angle_r/value	/jointset/subtalar_r/subtalar_angle_r/value	/jointset/hip_l/hip_flexion_l/value	/jointset/hip_l/hip_adduction_l/value	/jointset/hip_l/hip_rotation_l/value	/jointset/walker_knee_l/knee_angle_l/value	/jointset/patellofemoral_l/knee_angle_l_beta/value	/jointset/ankle_l/ankle_angle_l/value	/jointset/subtalar_l/subtalar_angle_l/value
139.996	-0.001661879824468898	-0.1735679342268143	1.524358368840485	0.8196212200000563	0.9472875300000742	-0.9144250200000694	0.4468160225336699	0.008353344069448059	-0.02593049038910177	0.1043927388863731	0.104392740000007	-0.07830377434651961	-0.03572974514698299	-0.1819187384931331	0.0341149668721034	0.1096338896753488	0.6296897683670512	0.6296897700000413	-0.5089859184714063	-0.3811307573713238
140	0.001180423714837523	-0.1677734663779769	1.521809969590121	0.8199137467185633	0.9454496845813911	-0.9146120728741121	0.4418313749224645	0.01302943500592916	-0.02252953902132897	0.1197291603838756	0.119729161426876	-0.08334692159642178	-0.05033638277731887	-0.1748612525034017	0.0309720495800851	0.1024801272758209	0.669458963829929	0.6694589652150666	-0.5134855855658501	-0.3890525113317752
140.004	0.004062750442039803	-0.1620725769305965	1.519234066835514	0.8202135490023632	0.9435918619072824	-0.9147885795380467	0.4369760191575486	0.01781195138387274	-0.01903207430831861	0.1353001201165525	0.1353001210847889	-0.08803755981472826	-0.06513141943670048	-0.1676635597080983	0.02768437476563268	0.09526676503272255	0.7091720018033245	0.7091720029412639	-0.5179769829903789	-0.397032481835982
140.008	0.007021770611003947	-0.1565564990182704	1.516605232278011	0.8205274643290237	0.9416950311672254	-0.9149441816818453	0.4323744431890381	0.02280060858707319	-0.01534617901129419	0.1513306105266653	0.1513306114119398	-0.09203510308947016	-0.08029065228723349	-0.1601857794017078	0.02411467404133783	0.08794026098258627	0.7487758403708024	0.7487758412628415	-0.5224475610892567	-0.4051276593119777
140.012	0.0100877714941665	-0.1513117787826671	1.513902138783688	0.8208614706745272	0.9397420136620313	-0.9150688921536372	0.4281415991846551	0.0280821427180809	-0.01138899820470938	0.1680268041962165	0.1680268049864989	-0.09502234367211579	-0.09596531305250657	-0.1522890498936181	0.02014016716922713	0.08045890043167507	0.788223033473459	0.7882230341214859	-0.5268767633963313	-0.4133922169041438
140.016	0.0132821820510072	-0.1464180151597244	1.511109455003383	0.8212203006902749	0.9377183084098168	-0.9151532695680661	0.4243783848298135	0.03372484888235876	-0.007090872243843177	0.1855673060577277	0.1855673067377777	-0.09671601273353171	-0.1122714258957231	-0.1438367752028464	0.01565869011701338	0.07279796542936677	0.8274731187059529	0.8274731191124172	-0.5312332692354655	-0.4218753113055289
140.02	0.01661577639265197	-0.1419458183955492	1.508219498412376	0.8216071117296144	0.9356128038371333	-0.9151885819806459	0.4211675262841473	0.03977419590708258	-0.002398877751220964	0.2040951676583191	0.2040951682109097	-0.09687606583414285	-0.1292811688694867	-0.1346964111857486	0.01059370073779099	0.06495397519692359	0.866492708897965	0.8664927090660089	-0.535473419135404	-0.4306182118827093
140.024	0.0200876221122637	-0.13795505116637	1.505233540762947	0.8220232292030656	0.9334183558853907	-0.9151669613420648	0.4185699575470596	0.04624970831014821	0.002720433819112395	0.2237108982910029	0.2237108986987829	-0.09531330818641763	-0.1470167628872097	-0.1247417590929369	0.004897990142166958	0.05694768634635965	0.9052542750504862	0.9052542749842686	-0.5395408696947209	-0.4396508897230727
140.028	0.023684809507679	-0.1344932918910632	1.502162685431466	0.8224679753750941	0.9311322280750953	-0.9150815533349111	0.4166216571815792	0.0531432389085597	0.008279212128629214	0.2444667223227623	0.2444667225705653	-0.0918949720469124	-0.1654471662423274	-0.1138558101492958	-0.001444020047857931	0.04882560664624277	0.9437337323196552	0.9437337320248261	-0.5433674196904313	-0.4489883688751642
140.032	0.02738294264480148	-0.1315944685735544	1.499028259596714	0.8229385918519807	0.928756391835294	-0.9149266643976511	0.415330932764557	0.06041867538634162	0.01426746781337545	0.2663623370795561	0.2663623371568288	-0.08654796230799244	-0.1844876904304719	-0.1019341025758636	-0.008415443644307725	0.04065987474058985	0.9819070818434759	0.9819070813277669	-0.5468748566781344	-0.4586272247645907
140.036	0.03114730588852717	-0.1292777124042893	1.495861683519118	0.8234302616825064	0.9262976802267118	-0.9146979024078911	0.4146762752208107	0.0680130415533389	0.02065327321285833	0.289342404354847	0.2893424042577942	-0.07925967153684937	-0.2040025551075632	-0.08888837022982385	-0.01596753149524034	0.03254646576572221	1.019746493724874	1.019746492998759	-0.5499775897718689	-0.4685426041977716
140.04	0.03493457479984703	-0.1275465392367932	1.492703805356797	0.8239362334927383	0.9237677860037591	-0.9143923042703171	0.4146049807752434	0.07583888502118312	0.0273840118442978	0.3132959647861128	0.3132959645190645	-0.07007643639554573	-0.2238102552282329	-0.07465016311823147	-0.02402162446880265	0.02460178839395265	1.057216270392881	1.057216269470274	-0.5525858013121654	-0.4786860912588401
